<svg width="36" height="28" viewBox="0 0 36 28" fill="none" xmlns="http://www.w3.org/2000/svg">
<g filter="url(#filter0_b_1183_1438)">
<path fill-rule="evenodd" clip-rule="evenodd" d="M14.7212 7.36421C12.8932 11.2664 11.3795 14.5063 11.3574 14.5641C11.3085 14.6921 12.9006 15.4684 13.0003 15.3652C13.0365 15.3278 14.1689 13.0262 15.5167 10.2507C16.8645 7.47508 17.9906 5.17667 18.0192 5.14303C18.0478 5.10938 19.32 7.75159 20.8463 11.0146C22.3725 14.2776 23.608 16.9573 23.592 16.9696C23.5759 16.9817 21.6763 17.4352 19.3706 17.9772L15.1785 18.9626L7.85014 13.7431C3.81962 10.8723 0.512107 8.55303 0.500147 8.58907C0.477742 8.6566 3.02294 24.1664 3.06305 24.2067C3.07532 24.2191 8.93561 24.22 16.0857 24.2089L29.0861 24.1886L27.7488 21.3049C27.0133 19.7189 26.4343 18.4002 26.4622 18.3745C26.5362 18.3063 32.6155 16.9157 32.657 16.9575C32.6764 16.977 32.2155 18.9544 31.6329 21.3518L30.5737 25.7106L16.0652 25.7506L1.55675 25.7907L1.56034 26.1311C1.56234 26.3183 1.57135 26.778 1.58028 27.1525L1.59662 27.8333H16.8637H32.1309L32.1863 27.613C32.7854 25.2325 35.3689 14.2507 35.333 14.2373C35.3057 14.2271 33.0947 14.7364 30.4197 15.3693C27.7446 16.002 25.5316 16.497 25.5017 16.4692C25.4719 16.4414 23.8084 12.814 21.805 8.40828C19.8017 4.0026 18.1361 0.369031 18.1037 0.333625C18.0714 0.298299 16.5492 3.46206 14.7212 7.36421ZM8.94924 16.9502C12.0752 19.159 14.6918 20.9826 14.7639 21.0025C14.836 21.0225 17.0182 20.5461 19.6131 19.9438C22.208 19.3416 24.3744 18.8655 24.4272 18.8859C24.4977 18.9131 25.8408 21.6683 26.061 22.2375C26.0757 22.2755 21.2913 22.3062 15.357 22.3062C9.45522 22.3062 4.62643 22.2789 4.62643 22.2456C4.62643 22.2122 4.30367 20.1666 3.90916 17.6997C3.20545 13.2994 3.1533 12.9341 3.22849 12.9341C3.24898 12.9341 5.82336 14.7413 8.94924 16.9502Z" fill="black"/>
</g>
<defs>
<filter id="filter0_b_1183_1438" x="-11.0462" y="-11.2129" width="57.9254" height="50.5924" filterUnits="userSpaceOnUse" color-interpolation-filters="sRGB">
<feFlood flood-opacity="0" result="BackgroundImageFix"/>
<feGaussianBlur in="BackgroundImageFix" stdDeviation="5.7731"/>
<feComposite in2="SourceAlpha" operator="in" result="effect1_backgroundBlur_1183_1438"/>
<feBlend mode="normal" in="SourceGraphic" in2="effect1_backgroundBlur_1183_1438" result="shape"/>
</filter>
</defs>
</svg>
